<svg xmlns="http://www.w3.org/2000/svg" fill="#171717" aria-hidden="true" viewBox="0 0 24 24"><path d="M17.318 0a5.94 5.94 0 0 1 5.93 5.61l.745 13.4.007.24A4.73 4.73 0 0 1 19.273 24H4.727a4.73 4.73 0 0 1-4.439-3.101 4.7 4.7 0 0 1-.28-1.888L.751 5.61l.022-.282A5.94 5.94 0 0 1 6.682 0zM6.682 2.182a3.76 3.76 0 0 0-3.752 3.55l-.744 13.4a2.545 2.545 0 0 0 2.541 2.686h14.546a2.546 2.546 0 0 0 2.542-2.429l-.001-.258-.744-13.4-.037-.357a3.76 3.76 0 0 0-3.715-3.192z"/><path d="M6.058 6.848a1.09 1.09 0 0 1 2.182 0 3.76 3.76 0 0 0 6.415 2.658 3.76 3.76 0 0 0 1.1-2.658 1.09 1.09 0 1 1 2.182 0 5.941 5.941 0 0 1-10.139 4.2 5.94 5.94 0 0 1-1.74-4.2"/></svg>