<svg xmlns="http://www.w3.org/2000/svg" fill="#171717" aria-hidden="true" viewBox="0 0 24 24"><path d="M11.398.21a.95.95 0 0 1 1.268.066l2.96 2.96h4.186c.523 0 .947.424.948.947V8.37l2.959 2.959a.947.947 0 0 1 0 1.34l-2.96 2.959v4.186a.95.95 0 0 1-.947.948h-4.187l-2.959 2.96a.947.947 0 0 1-1.34 0l-2.959-2.96H4.181a.95.95 0 0 1-.948-.948v-4.186l-2.96-2.96a.947.947 0 0 1 0-1.34l2.96-2.958V4.183c0-.523.425-.947.948-.947h4.186l2.96-2.96zM9.43 4.854a.95.95 0 0 1-.67.277H5.129v3.632c0 .25-.1.492-.278.67L2.284 12l2.567 2.567a.95.95 0 0 1 .278.67v3.631H8.76l.185.019a.95.95 0 0 1 .484.259l2.567 2.567 2.567-2.567.145-.119a.95.95 0 0 1 .525-.159h3.632v-3.631c0-.252.1-.493.277-.67L21.709 12l-2.567-2.567a.95.95 0 0 1-.277-.67V5.13h-3.632a.95.95 0 0 1-.67-.277l-2.567-2.567z"/><path d="M14.647 8.015a.947.947 0 1 1 1.34 1.34l-6.632 6.631a.947.947 0 0 1-1.34-1.34zm-5.691-.279a1.224 1.224 0 1 1-1.217 1.348l-.006-.125a1.22 1.22 0 0 1 1.223-1.223m6.208 6.087a1.224 1.224 0 1 1-1.341 1.342l-.006-.125a1.22 1.22 0 0 1 1.222-1.224z"/></svg>