<svg xmlns="http://www.w3.org/2000/svg" fill="#171717" aria-hidden="true" viewBox="0 0 24 24"><path d="M3 20.4V6a1.2 1.2 0 0 1 2.4 0v14.4a1.2 1.2 0 0 0 1.2 1.2h10.8a1.2 1.2 0 0 0 1.2-1.2V6A1.2 1.2 0 1 1 21 6v14.4a3.6 3.6 0 0 1-3.6 3.6H6.6A3.6 3.6 0 0 1 3 20.4"/><path d="m21.6 4.8.123.006a1.2 1.2 0 0 1 0 2.388L21.6 7.2H2.4a1.2 1.2 0 1 1 0-2.4z"/><path d="M15 6v-.6a3 3 0 1 0-6 0V6l-.006.123a1.2 1.2 0 0 1-2.388 0L6.6 6v-.6a5.4 5.4 0 1 1 10.8 0V6A1.2 1.2 0 0 1 15 6M8.4 16.8V12a1.2 1.2 0 1 1 2.4 0v4.8l-.006.124a1.2 1.2 0 0 1-2.388 0zm4.8 0V12a1.2 1.2 0 1 1 2.4 0v4.8l-.006.124a1.2 1.2 0 0 1-2.388 0z"/></svg>