<svg xmlns="http://www.w3.org/2000/svg" fill="#171717" aria-hidden="true" viewBox="0 0 24 24"><path d="M21.867 9.007c0-2.858-2.195-5.54-4.939-5.54-1.621 0-2.664.783-3.307 1.534a2.133 2.133 0 0 1-3.242 0c-.643-.751-1.686-1.535-3.307-1.535-2.744 0-4.94 2.683-4.94 5.54 0 2.985 1.892 5.87 4.411 8.15a19.4 19.4 0 0 0 3.605 2.593 10 10 0 0 0 1.38.642c.271.098.422.127.472.137.05-.01.2-.04.471-.137a10 10 0 0 0 1.38-.642 19.4 19.4 0 0 0 3.606-2.593c2.52-2.28 4.41-5.165 4.41-8.15m2.133 0c0 7.734-9.63 13.66-12 13.66S0 16.74 0 9.007c0-3.7 2.84-7.673 7.072-7.673 2.42 0 4.01 1.206 4.928 2.28.919-1.074 2.508-2.28 4.928-2.28l.392.011C21.334 1.582 24 5.422 24 9.007"/></svg>