<svg xmlns="http://www.w3.org/2000/svg" fill="#171717" aria-hidden="true" viewBox="0 0 24 24"><path d="M17.466 16a.133.133 0 0 0-.133-.133h-2.667a.133.133 0 0 0-.133.132v5.335a.133.133 0 0 0 .133.133h2.667a.133.133 0 0 0 .133-.133zm2.4 5.334a2.533 2.533 0 0 1-2.533 2.533h-2.667a2.533 2.533 0 0 1-2.533-2.533V16a2.533 2.533 0 0 1 2.533-2.533h2.667a2.533 2.533 0 0 1 2.533 2.532z"/><path d="M24 17.467v2.4h-5.333v-2.4zm-10.667 0v2.4H0v-2.4zM9.466 2.666a.133.133 0 0 0-.133-.133H6.666a.133.133 0 0 0-.133.133v5.335a.133.133 0 0 0 .133.132h2.667a.133.133 0 0 0 .133-.132zm2.4 5.335a2.534 2.534 0 0 1-2.533 2.533H6.666A2.533 2.533 0 0 1 4.133 8V2.666A2.533 2.533 0 0 1 6.666.133h2.667a2.533 2.533 0 0 1 2.533 2.533z"/><path d="M5.333 4.133v2.4H0v-2.4zm18.667 0v2.4H10.667v-2.4z"/></svg>