<svg xmlns="http://www.w3.org/2000/svg" fill="#171717" aria-hidden="true" viewBox="0 0 24 24"><path d="M15.822 11.998c0-2.914-.528-5.503-1.337-7.323-.405-.912-.86-1.585-1.312-2.017-.448-.426-.844-.573-1.177-.573s-.729.147-1.177.573c-.453.432-.907 1.105-1.312 2.017-.81 1.82-1.337 4.409-1.337 7.323s.528 5.503 1.337 7.323c.405.912.86 1.586 1.313 2.017.447.426.843.573 1.176.573s.73-.147 1.177-.573c.453-.431.907-1.105 1.312-2.017.81-1.82 1.337-4.408 1.337-7.323m2.087 0c0 3.137-.563 6.027-1.516 8.171-.476 1.071-1.07 2.003-1.781 2.68-.718.684-1.604 1.149-2.616 1.149s-1.898-.465-2.615-1.148c-.713-.678-1.306-1.61-1.782-2.68-.953-2.146-1.516-5.035-1.516-8.172s.563-6.026 1.516-8.171c.476-1.071 1.07-2.003 1.782-2.68.717-.684 1.603-1.149 2.615-1.149s1.898.465 2.616 1.148c.712.678 1.305 1.61 1.78 2.68.954 2.146 1.517 5.035 1.517 8.172"/><path d="M22.953 10.955a1.043 1.043 0 1 1 0 2.086H1.04a1.043 1.043 0 0 1 0-2.086z"/><path d="M21.91 10.78a8.696 8.696 0 0 0-8.696-8.695h-2.435a8.696 8.696 0 0 0-8.696 8.696v2.434a8.696 8.696 0 0 0 8.696 8.696h2.435a8.696 8.696 0 0 0 8.695-8.696zm2.086 2.435c0 5.956-4.827 10.783-10.782 10.783h-2.435c-5.955 0-10.783-4.828-10.783-10.783v-2.434C-.004 4.826 4.824-.002 10.78-.002h2.435c5.955 0 10.782 4.828 10.782 10.783z"/></svg>