<svg xmlns="http://www.w3.org/2000/svg" fill="#171717" aria-hidden="true" viewBox="0 0 24 24"><path d="M19.665 9.921A7.67 7.67 0 0 0 6.573 4.498 7.67 7.67 0 0 0 4.327 9.92c0 2.026.979 4.237 2.378 6.329 1.382 2.068 3.085 3.888 4.339 5.105l.003.003a1.36 1.36 0 0 0 1.901 0l.003-.003c1.252-1.217 2.955-3.036 4.338-5.104 1.398-2.092 2.376-4.304 2.376-6.33m2.254 0c0 2.689-1.268 5.354-2.757 7.581-1.505 2.252-3.33 4.196-4.641 5.47a3.616 3.616 0 0 1-5.048-.002c-1.313-1.274-3.138-3.218-4.642-5.468-1.49-2.227-2.758-4.892-2.758-7.581a9.924 9.924 0 1 1 19.846 0"/><path d="M11.994 8.075A.858.858 0 1 0 12 9.79a.858.858 0 0 0-.006-1.715"/><path d="m12.445 8.842-.03-.083a.5.5 0 0 0-.096-.15l-.002-.002-.32.325.17-.418-.081-.03-.091-.004a.5.5 0 0 0-.173.03.5.5 0 0 0-.115.07l-.09.1a.5.5 0 0 0-.057.12l-.02.133.009.09a.46.46 0 0 0 .274.333.46.46 0 0 0 .597-.25.5.5 0 0 0 .03-.173zm-.449.09.321-.325a.5.5 0 0 0-.15-.093zm2.173.001a2.17 2.17 0 0 1-1.338 2.005 2.174 2.174 0 0 1-2.843-2.83l.066-.148c.167-.334.419-.62.73-.83l.137-.083a2.2 2.2 0 0 1 1.068-.287l.214.01q.213.02.418.081l.201.072.194.091q.189.1.355.236l.16.144.143.159q.136.165.238.353l.091.194.072.2c.062.205.094.419.094.633"/></svg>