<svg xmlns="http://www.w3.org/2000/svg" fill="#171717" aria-hidden="true" viewBox="0 0 24 24"><path d="M2.377 1.09a3.717 3.717 0 0 1 5.258 0l1.55 1.549c1.233 1.233 1.156 3.17-.112 4.438L8.03 8.117c.719 1.605 1.793 3.199 3.224 4.63 1.43 1.43 3.023 2.506 4.628 3.226l1.154-1.154.232-.21a3.06 3.06 0 0 1 4.094.21l1.548 1.547a3.717 3.717 0 0 1 0 5.258l-.86.86c-1.245 1.244-3.022 1.745-4.75 1.42-3.69-.698-7.656-2.822-11.019-6.185S.795 10.39.097 6.7c-.326-1.728.175-3.505 1.42-4.75zm3.731 1.526a1.56 1.56 0 0 0-2.204 0l-.86.86c-.71.71-1.026 1.754-.824 2.823.606 3.206 2.488 6.793 5.588 9.893s6.687 4.984 9.893 5.59l.2.03c.998.13 1.957-.19 2.623-.855l.859-.86a1.56 1.56 0 0 0 0-2.204l-1.548-1.548a.9.9 0 0 0-1.27-.001l-1.193 1.194c-.578.577-1.483.8-2.291.444-1.88-.83-3.718-2.073-5.354-3.709S6.85 10.798 6.021 8.92l-.059-.153a2.07 2.07 0 0 1 .504-2.139l1.08-1.08c.502-.502.425-1.07.112-1.383z"/></svg>