<svg xmlns="http://www.w3.org/2000/svg" fill="#171717" aria-hidden="true" viewBox="0 0 24 24"><path d="M15.265 1.213a5.94 5.94 0 0 1 5.145 2.969l2.794 4.848a5.94 5.94 0 0 1 .188 5.59l-.187.35-2.795 4.848a5.94 5.94 0 0 1-5.145 2.97h-6.53A5.94 5.94 0 0 1 3.8 20.153l-.21-.336-2.794-4.85A5.94 5.94 0 0 1 .795 9.03l2.797-4.848a5.94 5.94 0 0 1 5.143-2.97zm-6.53 2.18a3.76 3.76 0 0 0-3.122 1.666l-.133.213-2.797 4.848a3.76 3.76 0 0 0 .002 3.76l2.794 4.848.132.213a3.76 3.76 0 0 0 3.124 1.666h6.53a3.76 3.76 0 0 0 3.255-1.88l2.797-4.847a3.76 3.76 0 0 0 0-3.758l-2.796-4.85a3.76 3.76 0 0 0-3.256-1.879z"/><path d="M14.26 8.198a1.09 1.09 0 0 1 1.54 1.543l-6.06 6.06a1.092 1.092 0 0 1-1.543-1.541z"/><path d="M8.198 8.198a1.09 1.09 0 0 1 1.543 0l6.06 6.062a1.09 1.09 0 1 1-1.541 1.54L8.198 9.74a1.09 1.09 0 0 1 0-1.543"/></svg>