<svg xmlns="http://www.w3.org/2000/svg" fill="#171717" aria-hidden="true" viewBox="0 0 24 24"><path d="M21.492 7.223a4.715 4.715 0 0 0-4.715-4.715H7.223a4.715 4.715 0 0 0-4.715 4.715v9.554a4.715 4.715 0 0 0 4.715 4.715h9.554a4.715 4.715 0 0 0 4.715-4.715zM24 16.777A7.224 7.224 0 0 1 16.777 24H7.223A7.224 7.224 0 0 1 0 16.777V7.223A7.224 7.224 0 0 1 7.223 0h9.554A7.224 7.224 0 0 1 24 7.223z"/><path d="M11.993 5.433a1.79 1.79 0 1 0 .014 3.582 1.79 1.79 0 0 0-.014-3.582m-.948 11.563v-4.425a1.25 1.25 0 0 1-1.195-1.247c0-.692.562-1.254 1.255-1.254h1.194c.692 0 1.252.562 1.252 1.254v5.672a1.252 1.252 0 0 1-2.506 0"/></svg>