<svg xmlns="http://www.w3.org/2000/svg" fill="#171717" aria-hidden="true" viewBox="0 0 24 24"><path d="M12 .49a3.23 3.23 0 0 1 2.85 1.717l8.778 16.594.002.001a3.22 3.22 0 0 1-.098 3.166 3.21 3.21 0 0 1-2.758 1.54L3.22 23.51a3.22 3.22 0 0 1-2.755-1.546 3.21 3.21 0 0 1-.098-3.162l.002-.001L9.148 2.207A3.23 3.23 0 0 1 10.335.951 3.23 3.23 0 0 1 12 .49m0 2.327a.9.9 0 0 0-.795.478l-8.777 16.59.001.002a.89.89 0 0 0 .026.87.89.89 0 0 0 .76.426h17.566a.89.89 0 0 0 .762-.424.89.89 0 0 0 .027-.87L12.793 3.294A.9.9 0 0 0 12 2.817"/><path d="M10.834 14.463V8.55a1.163 1.163 0 1 1 2.327 0v5.912a1.163 1.163 0 1 1-2.327 0m1.314 1.98a1.478 1.478 0 0 1 1.027 2.359l-.011.015q-.073.093-.159.175l-.028.025q-.09.08-.194.145l-.013.008a1.5 1.5 0 0 1-.224.113l-.02.009a1.5 1.5 0 0 1-.53.099q-.075 0-.15-.007a1.5 1.5 0 0 1-.226-.044l-.048-.011a1.5 1.5 0 0 1-.228-.093l-.03-.013a1.5 1.5 0 0 1-.405-.312l-.01-.012a1.5 1.5 0 0 1-.153-.2l-.004-.005-.045-.076a2 2 0 0 1-.062-.13l-.014-.033-.007-.022a1.475 1.475 0 0 1 1.383-1.999z"/></svg>