<svg xmlns="http://www.w3.org/2000/svg" fill="#171717" aria-hidden="true" viewBox="0 0 24 24"><path d="M22.154 12c0-5.608-4.546-10.154-10.154-10.154S1.846 6.392 1.846 12 6.392 22.154 12 22.154 22.154 17.608 22.154 12M24 12c0 6.627-5.373 12-12 12S0 18.627 0 12 5.373 0 12 0s12 5.373 12 12"/><path d="M14.77 9.538a2.77 2.77 0 1 0-5.54 0 2.77 2.77 0 0 0 5.54 0m1.845 0a4.615 4.615 0 1 1-9.23 0 4.615 4.615 0 0 1 9.23 0M12 16c2.863 0 5.648.928 7.939 2.646a.923.923 0 0 1-1.108 1.476 11.385 11.385 0 0 0-13.662 0 .923.923 0 0 1-1.108-1.476A13.23 13.23 0 0 1 12 16"/></svg>