<svg xmlns="http://www.w3.org/2000/svg" fill="#171717" aria-hidden="true" viewBox="0 0 24 24"><path d="M22.154 12a10.154 10.154 0 1 0-20.308 0 10.154 10.154 0 0 0 20.308 0M24 12a12 12 0 0 1-12 12 12.001 12.001 0 1 1 12-12"/><path d="M11.385 8a.923.923 0 0 1 0 1.846H6.462a.923.923 0 1 1 0-1.846z"/><path d="M13.228 6.2a2.77 2.77 0 0 1 2.818 2.72 2.773 2.773 0 0 1-3.897 2.58 2.77 2.77 0 0 1-1.641-2.58 2.77 2.77 0 0 1 2.72-2.72m.032 1.846a.923.923 0 1 0 .034 1.846.923.923 0 0 0-.034-1.846"/><path d="M17.539 8a.923.923 0 0 1 0 1.846h-1.847a.923.923 0 1 1 0-1.846zm0 6.154a.923.923 0 0 1 0 1.846H13.23a.923.923 0 0 1 0-1.846z"/><path d="M10.766 12.354a2.77 2.77 0 0 1 2.007 4.727 2.769 2.769 0 1 1-2.007-4.727m.033 1.846a.923.923 0 1 0 .034 1.846.923.923 0 0 0-.034-1.846"/><path d="M8.308 14.154a.923.923 0 0 1 0 1.846H6.462a.923.923 0 0 1 0-1.846z"/></svg>