<svg xmlns="http://www.w3.org/2000/svg" fill="#171717" aria-hidden="true" viewBox="0 0 24 24"><path d="M.216 11.998a12 12 0 0 1 20.486-8.484 1 1 0 0 1-1.414 1.414 10 10 0 1 0 0 14.141 1 1 0 0 1 1.414 1.414A12 12 0 0 1 .216 11.998"/><path d="m22.267 11.999-4.482 4.482-1.083-1.083 3.4-3.4-3.4-3.4 1.083-1.082z"/><path d="M20.16 11.235v1.53l-9.94-.002v-1.53z"/><path d="m17.879 7.422 4.483 4.482.094.095-4.577 4.576-.094.095-1.27-1.271.093-.095 2.405-2.406-8.926-.002v-1.795h8.929l-2.408-2.408-.094-.095 1.271-1.27zm-.988 1.176 2.502 2.503.767.001h.133v1.797h-.133l-.77-.001-2.5 2.5.894.894 4.294-4.294-4.294-4.294zm2.766 4.033h.369v-.367zm-9.304-.002 8.927.002.633-.633-.63-.63h-8.93zm9.673-.896v-.365h-.366z"/></svg>