<svg xmlns="http://www.w3.org/2000/svg" width="220" height="248" fill="none"><g clip-path="url(#clip0_17166_65656)" filter="url(#filter0_ddd_17166_65656)"><g clip-path="url(#clip1_17166_65656)"><path fill="#fafafa" d="M40 24c0-6.627 5.373-12 12-12h116c6.627 0 12 5.373 12 12v163c0 6.627-5.373 12-12 12H52c-6.627 0-12-5.373-12-12z"/><g filter="url(#filter1_dd_17166_65656)"><mask id="path-2-inside-1_17166_65656" fill="#fff"><path d="M48 28a8 8 0 0 1 8-8h108a8 8 0 0 1 8 8v124a8 8 0 0 1-8 8H56a8 8 0 0 1-8-8z"/></mask><path fill="#fff" d="M48 28a8 8 0 0 1 8-8h108a8 8 0 0 1 8 8v124a8 8 0 0 1-8 8H56a8 8 0 0 1-8-8z"/><path fill="url(#paint0_linear_17166_65656)" d="M56 20v1h108v-2H56zm116 8h-1v124h2V28zm-8 132v-1H56v2h108zm-116-8h1V28h-2v124zm8 8v-1a7 7 0 0 1-7-7h-2a9 9 0 0 0 9 9zm116-8h-1a7 7 0 0 1-7 7v2a9 9 0 0 0 9-9zm-8-132v1a7 7 0 0 1 7 7h2a9 9 0 0 0-9-9zM56 20v-1a9 9 0 0 0-9 9h2a7 7 0 0 1 7-7z" mask="url(#path-2-inside-1_17166_65656)"/><path fill="#ebebeb" d="M110 77.422c1.378-1.612 3.762-3.422 7.392-3.422C123.74 74 128 79.96 128 85.51c0 11.602-14.444 20.49-18 20.49s-18-8.888-18-20.49C92 79.96 96.26 74 102.608 74c3.63 0 6.014 1.81 7.392 3.422"/></g><g filter="url(#filter2_d_17166_65656)"><mask id="path-5-inside-2_17166_65656" fill="#fff"><path d="M48 185a6 6 0 0 1 6-6h36a6 6 0 1 1 0 12H54a6 6 0 0 1-6-6"/></mask><path fill="#fff" d="M48 185a6 6 0 0 1 6-6h36a6 6 0 1 1 0 12H54a6 6 0 0 1-6-6"/><path fill="url(#paint1_linear_17166_65656)" d="M54 179v1h36v-2H54zm36 12v-1H54v2h36zm-36 0v-1a5 5 0 0 1-5-5h-2a7 7 0 0 0 7 7zm42-6h-1a5 5 0 0 1-5 5v2a7 7 0 0 0 7-7zm-6-6v1a5 5 0 0 1 5 5h2a7 7 0 0 0-7-7zm-36 0v-1a7 7 0 0 0-7 7h2a5 5 0 0 1 5-5z" mask="url(#path-5-inside-2_17166_65656)"/></g><g filter="url(#filter3_d_17166_65656)"><mask id="path-7-inside-3_17166_65656" fill="#fff"><path d="M48 170a6 6 0 0 1 6-6h78a6 6 0 1 1 0 12H54a6 6 0 0 1-6-6"/></mask><path fill="#fff" d="M48 170a6 6 0 0 1 6-6h78a6 6 0 1 1 0 12H54a6 6 0 0 1-6-6"/><path fill="url(#paint2_linear_17166_65656)" d="M54 164v1h78v-2H54zm78 12v-1H54v2h78zm-78 0v-1a5 5 0 0 1-5-5h-2a7 7 0 0 0 7 7zm84-6h-1a5 5 0 0 1-5 5v2a7 7 0 0 0 7-7zm-6-6v1a5 5 0 0 1 5 5h2a7 7 0 0 0-7-7zm-78 0v-1a7 7 0 0 0-7 7h2a5 5 0 0 1 5-5z" mask="url(#path-7-inside-3_17166_65656)"/></g></g></g><defs><filter id="filter0_ddd_17166_65656" width="212" height="259" x="4" y="-2" color-interpolation-filters="sRGB" filterUnits="userSpaceOnUse"><feFlood flood-opacity="0" result="BackgroundImageFix"/><feColorMatrix in="SourceAlpha" result="hardAlpha" values="0 0 0 0 0 0 0 0 0 0 0 0 0 0 0 0 0 0 127 0"/><feMorphology in="SourceAlpha" radius="20" result="effect1_dropShadow_17166_65656"/><feOffset dy="22"/><feGaussianBlur stdDeviation="28"/><feComposite in2="hardAlpha" operator="out"/><feColorMatrix values="0 0 0 0 0 0 0 0 0 0 0 0 0 0 0 0 0 0 0.2 0"/><feBlend in2="BackgroundImageFix" result="effect1_dropShadow_17166_65656"/><feColorMatrix in="SourceAlpha" result="hardAlpha" values="0 0 0 0 0 0 0 0 0 0 0 0 0 0 0 0 0 0 127 0"/><feOffset dy="2"/><feGaussianBlur stdDeviation="2"/><feComposite in2="hardAlpha" operator="out"/><feColorMatrix values="0 0 0 0 0 0 0 0 0 0 0 0 0 0 0 0 0 0 0.1 0"/><feBlend in2="effect1_dropShadow_17166_65656" result="effect2_dropShadow_17166_65656"/><feColorMatrix in="SourceAlpha" result="hardAlpha" values="0 0 0 0 0 0 0 0 0 0 0 0 0 0 0 0 0 0 127 0"/><feMorphology in="SourceAlpha" operator="dilate" radius="1" result="effect3_dropShadow_17166_65656"/><feOffset/><feComposite in2="hardAlpha" operator="out"/><feColorMatrix values="0 0 0 0 0 0 0 0 0 0 0 0 0 0 0 0 0 0 0.05 0"/><feBlend in2="effect2_dropShadow_17166_65656" result="effect3_dropShadow_17166_65656"/><feBlend in="SourceGraphic" in2="effect3_dropShadow_17166_65656" result="shape"/></filter><filter id="filter1_dd_17166_65656" width="196" height="212" x="12" y="-4" color-interpolation-filters="sRGB" filterUnits="userSpaceOnUse"><feFlood flood-opacity="0" result="BackgroundImageFix"/><feColorMatrix in="SourceAlpha" result="hardAlpha" values="0 0 0 0 0 0 0 0 0 0 0 0 0 0 0 0 0 0 127 0"/><feMorphology in="SourceAlpha" radius="20" result="effect1_dropShadow_17166_65656"/><feOffset dy="12"/><feGaussianBlur stdDeviation="28"/><feComposite in2="hardAlpha" operator="out"/><feColorMatrix values="0 0 0 0 0 0 0 0 0 0 0 0 0 0 0 0 0 0 0.15 0"/><feBlend in2="BackgroundImageFix" result="effect1_dropShadow_17166_65656"/><feColorMatrix in="SourceAlpha" result="hardAlpha" values="0 0 0 0 0 0 0 0 0 0 0 0 0 0 0 0 0 0 127 0"/><feOffset dy="2"/><feGaussianBlur stdDeviation="2"/><feComposite in2="hardAlpha" operator="out"/><feColorMatrix values="0 0 0 0 0 0 0 0 0 0 0 0 0 0 0 0 0 0 0.04 0"/><feBlend in2="effect1_dropShadow_17166_65656" result="effect2_dropShadow_17166_65656"/><feBlend in="SourceGraphic" in2="effect2_dropShadow_17166_65656" result="shape"/></filter><filter id="filter2_d_17166_65656" width="56" height="20" x="44" y="177" color-interpolation-filters="sRGB" filterUnits="userSpaceOnUse"><feFlood flood-opacity="0" result="BackgroundImageFix"/><feColorMatrix in="SourceAlpha" result="hardAlpha" values="0 0 0 0 0 0 0 0 0 0 0 0 0 0 0 0 0 0 127 0"/><feOffset dy="2"/><feGaussianBlur stdDeviation="2"/><feComposite in2="hardAlpha" operator="out"/><feColorMatrix values="0 0 0 0 0 0 0 0 0 0 0 0 0 0 0 0 0 0 0.04 0"/><feBlend in2="BackgroundImageFix" result="effect1_dropShadow_17166_65656"/><feBlend in="SourceGraphic" in2="effect1_dropShadow_17166_65656" result="shape"/></filter><filter id="filter3_d_17166_65656" width="98" height="20" x="44" y="162" color-interpolation-filters="sRGB" filterUnits="userSpaceOnUse"><feFlood flood-opacity="0" result="BackgroundImageFix"/><feColorMatrix in="SourceAlpha" result="hardAlpha" values="0 0 0 0 0 0 0 0 0 0 0 0 0 0 0 0 0 0 127 0"/><feOffset dy="2"/><feGaussianBlur stdDeviation="2"/><feComposite in2="hardAlpha" operator="out"/><feColorMatrix values="0 0 0 0 0 0 0 0 0 0 0 0 0 0 0 0 0 0 0.04 0"/><feBlend in2="BackgroundImageFix" result="effect1_dropShadow_17166_65656"/><feBlend in="SourceGraphic" in2="effect1_dropShadow_17166_65656" result="shape"/></filter><linearGradient id="paint0_linear_17166_65656" x1="110" x2="110" y1="20" y2="160" gradientUnits="userSpaceOnUse"><stop stop-color="#e6e6e6"/><stop offset="1" stop-color="#d8d8d8"/></linearGradient><linearGradient id="paint1_linear_17166_65656" x1="72" x2="72" y1="179" y2="191" gradientUnits="userSpaceOnUse"><stop stop-color="#e6e6e6"/><stop offset="1" stop-color="#d8d8d8"/></linearGradient><linearGradient id="paint2_linear_17166_65656" x1="93" x2="93" y1="164" y2="176" gradientUnits="userSpaceOnUse"><stop stop-color="#e6e6e6"/><stop offset="1" stop-color="#d8d8d8"/></linearGradient><clipPath id="clip0_17166_65656"><path fill="#fff" d="M0 0h220v248H0z"/></clipPath><clipPath id="clip1_17166_65656"><path fill="#fff" d="M40 24c0-6.627 5.373-12 12-12h116c6.627 0 12 5.373 12 12v163c0 6.627-5.373 12-12 12H52c-6.627 0-12-5.373-12-12z"/></clipPath></defs></svg>