<svg xmlns="http://www.w3.org/2000/svg" fill="#171717" aria-hidden="true" viewBox="0 0 24 24"><path d="M12 3.814c4.429 0 8.687 2.953 11.193 6.391l.479.694a2.01 2.01 0 0 1 0 2.203c-2.416 3.724-6.947 7.085-11.672 7.085S2.746 16.825.33 13.1a2.01 2.01 0 0 1-.003-2.2C2.744 7.175 7.275 3.814 12 3.814m0 2.322c-3.632 0-7.45 2.639-9.612 5.864 2.161 3.226 5.98 5.863 9.612 5.863s7.448-2.637 9.61-5.862C19.45 8.775 15.632 6.136 12 6.136"/><path d="M8.701 8.98c1.842-1.536 4.755-1.535 6.596 0 .95.791 1.477 1.88 1.477 3.02s-.526 2.229-1.477 3.021c-1.841 1.534-4.754 1.535-6.596 0-.95-.792-1.475-1.88-1.475-3.021 0-1.14.525-2.229 1.475-3.02m4.92 1.639c-.994-.67-2.514-.622-3.433.144-.46.384-.64.836-.64 1.237 0 .4.18.853.64 1.237.98.816 2.642.816 3.622 0 .461-.384.642-.836.642-1.237 0-.35-.137-.741-.48-1.09l-.162-.147z"/></svg>