<svg xmlns="http://www.w3.org/2000/svg" fill="#171717" aria-hidden="true" viewBox="0 0 24 24"><path d="M7.878 18.143c.197-.61.852-.946 1.462-.75.887.287 1.782.44 2.66.44a1.162 1.162 0 0 1 0 2.325c-1.15 0-2.286-.203-3.372-.553a1.16 1.16 0 0 1-.75-1.462"/><path d="M21.723 11.808a1.161 1.161 0 1 1 1.948 1.264c-2.417 3.724-6.946 7.086-11.671 7.086a1.162 1.162 0 0 1 0-2.324c3.694 0 7.582-2.727 9.723-6.026"/><path d="M19.694 8.068a1.163 1.163 0 0 1 1.643-.02 16.6 16.6 0 0 1 2.334 2.821l.002.002a2.01 2.01 0 0 1 0 2.2 1.162 1.162 0 0 1-2.047-1.078 14.4 14.4 0 0 0-1.912-2.281 1.163 1.163 0 0 1-.02-1.644m1.879-5.586a1.16 1.16 0 1 1 1.5 1.77L2.6 21.603a1.161 1.161 0 0 1-1.503-1.772z"/><path d="M12 3.783c2.381 0 4.704.858 6.704 2.148a1.162 1.162 0 0 1-1.259 1.952C15.72 6.77 13.828 6.105 12 6.105c-3.632 0-7.451 2.639-9.613 5.864a14.7 14.7 0 0 0 4.167 4.088 1.16 1.16 0 0 1-1.259 1.953c-2-1.29-3.738-3.046-4.966-4.938a2.01 2.01 0 0 1 0-2.203c2.416-3.725 6.946-7.086 11.67-7.086"/></svg>