<svg xmlns="http://www.w3.org/2000/svg" aria-hidden="true" viewBox="0 0 43 16" fill="#171717"><defs><filter id="i151689633__a" color-interpolation-filters="auto"><feColorMatrix in="SourceGraphic" values="0 0 0 0 0.000000 0 0 0 0 0.000000 0 0 0 0 0.000000 0 0 0 1.000000 0"/></filter></defs><g fill="none" fill-rule="evenodd" filter="url(#i151689633__a)" transform="translate(-261 -810)"><path fill="currentColor" d="M274.188 812.054a.09.09 0 0 1 .118-.028l.008.005 1.187.845a.086.086 0 0 1 .023.117l-.008.012-.01.014-.428.554-4.192 5.507h2.363l2.015 6.92H261l2.137-6.92h5.7l5.177-6.808.171-.215zm-1.146 7.302h-2.365l-1.334 1.751-.52.606-.003-.002-.002.004-.078.072-.098.09-.123.095-.141.113-.153.113-.164.123-.502.363-.165.114-.14.098-.128.093-.114.078-.084.054-.046.034-.014.01-.016.014-.018.015-.017.013-.009.007-.02.014-.01.008-.024.015a1 1 0 0 1-.082.044c-.218.099-.392-.058-.408-.284q-.006-.116.009-.235l.015-.142.004-.046.02-.251c-.203.155-.333.334-.464.537l-.118.185-.05.077q-.051.078-.11.16c-.066.092-.221.042-.2-.072l.003-.01.325-1.178.02-.07.023-.07q.03-.09.045-.18l.008-.077c.002-.028-.003-.043-.05-.03-.032.008-.064.05-.091.09l-.04.06-.005.008a4 4 0 0 0-.189.286c-.122.203-.233.413-.359.614l-.021.035-.035.053-.025.037-.012.018-.027.037-.027.037-.028.037c-.168.215-.391.41-.664.386-.382-.034-.305-.28-.094-.23l.011.002c.19.053.337-.04.469-.17.187-.182.322-.41.45-.642l.103-.186c.077-.139.156-.276.246-.402l.048-.066.021-.029c.085-.112.193-.225.34-.2.17.027.207.197.186.34a3 3 0 0 1-.113.46l-.035.114-.05.169-.044.16c.159-.228.333-.428.625-.593.067-.038.17.01.163.092l-.06.719-.001.027v.015l-.001.032c0 .077.01.166.053.198.045.033.096.01.128-.014l.012-.01.01-.008.006-.007.003-.003.01-.018.004-.007.024-.061.064-.217.047-.148.112-.352.065-.194.065-.197.14-.395.074-.183.07-.172.07-.153.074-.132.656-.89.456-.6h-5.288l-1.952 6.368h13.495l-1.84-6.368zm-1.122 4.705.084.308h-7.928l.084-.308zm19.174-2.6c.244 0 .485.047.69.13l-.053.5a1.9 1.9 0 0 0-.65-.123c-.203 0-.316.08-.316.201 0 .097.08.153.196.198l.031.011.033.011.051.017.148.044.038.012.039.012.039.014.038.013.039.015c.242.098.458.258.458.622 0 .476-.268.795-.925.795-.293 0-.557-.055-.762-.165l.064-.504c.2.114.485.17.694.17.248 0 .352-.1.352-.241 0-.107-.087-.166-.214-.215l-.032-.012-.034-.012-.053-.017-.151-.047-.04-.012-.039-.013-.02-.007-.038-.014-.04-.016c-.245-.1-.465-.262-.465-.631 0-.43.297-.736.922-.736m-3.891 0c.244 0 .485.047.689.13l-.052.5a1.9 1.9 0 0 0-.65-.123c-.204 0-.316.08-.316.201 0 .097.08.153.196.198l.03.011.033.011.052.017.167.05.058.018.038.014.039.013.038.015c.242.098.459.258.459.622 0 .476-.268.795-.926.795a1.6 1.6 0 0 1-.761-.165l.064-.504c.2.114.485.17.693.17.249 0 .353-.1.353-.241 0-.111-.095-.171-.23-.221l-.033-.012-.017-.006-.054-.017-.15-.047-.06-.019-.039-.013c-.274-.097-.543-.253-.543-.661 0-.43.296-.736.922-.736m6.231 0c.205 0 .433.043.585.102l-.036.52a1.3 1.3 0 0 0-.412-.075c-.415 0-.574.155-.598.568l-.002.047-.001.074c0 .512.212.713.589.713.16 0 .312-.032.44-.091l.045.476c-.145.087-.361.138-.621.138-.718 0-1.099-.401-1.099-1.236 0-.792.333-1.236 1.11-1.236m9.903-.544v.583h.54v.457h-.54v1.22c0 .185.096.264.289.264a.7.7 0 0 0 .192-.028l.036.445a1.2 1.2 0 0 1-.417.068c-.485 0-.721-.276-.721-.73v-1.24h-.272v-.456h.3l.104-.54zm-14.13 0v.583h.54v.457h-.54v1.22c0 .185.096.264.288.264a.7.7 0 0 0 .192-.028l.036.445a1.2 1.2 0 0 1-.417.068c-.484 0-.72-.276-.72-.73v-1.24h-.273v-.456h.3l.104-.54zm-4.457.536c.688 0 .944.279.964.878l.001.052v1.503h-.476l-.049-.228-.011-.004c-.149.173-.381.272-.658.272-.46 0-.753-.257-.753-.792 0-.441.313-.744.866-.744.18 0 .336.027.464.067v-.138c0-.24-.128-.35-.46-.35-.269 0-.445.039-.67.13l-.052-.489q.366-.155.834-.157m10.48-.662v.544l-.008.315.012.008c.18-.15.4-.205.605-.205.513 0 .813.338.813.913v1.52h-.62v-1.52c0-.244-.125-.37-.39-.37a.52.52 0 0 0-.412.181v1.709h-.621v-3.063zm-13.097.142v2.354h1.238l-.016.599h-1.903v-2.953zm19.625-.189c.137 0 .289.02.393.051l-.036.394a1 1 0 0 0-.233-.024c-.244 0-.336.095-.336.249v.086h.517v.453h-.517v1.933h-.621v-1.933h-.305v-.453h.305v-.102c0-.359.252-.654.833-.654m-3.222.717c.108 0 .2.016.264.035l-.04.603a1 1 0 0 0-.264-.04c-.325 0-.565.232-.565.63v1.197h-.625v-2.37l.497-.024.056.398h.012c.152-.288.389-.43.665-.43zm1.495.027v2.398h-.637v-2.37zm-15.277 1.323c-.277 0-.405.107-.405.315 0 .233.14.315.345.315.212 0 .404-.126.404-.28v-.299a1 1 0 0 0-.344-.05zm14.96-2.09c.245 0 .353.09.353.263s-.108.26-.353.26c-.24 0-.356-.067-.356-.26 0-.169.116-.263.356-.263m-15.92-8.03c.63 0 1.312.127 1.812.33l-.18 1.205c-.536-.17-1.07-.272-1.563-.272-.802 0-1.018.272-1.018.61 0 .308.286.477.68.626l.078.03.08.028.083.028.3.102.09.03.088.032c.773.28 1.578.693 1.578 1.813 0 1.255-.889 2.026-2.399 2.026a4.3 4.3 0 0 1-2.002-.474l.19-1.23c.57.297 1.156.466 1.795.466.707 0 1.018-.254 1.018-.695 0-.32-.305-.494-.72-.653l-.078-.03-.082-.03-.083-.029-.259-.09-.088-.032-.045-.016-.089-.033c-.759-.285-1.533-.707-1.533-1.792 0-1.077.708-1.95 2.347-1.95m17.945.11 2.261 6.36h-1.622l-.363-1.238h-2.347l-.362 1.238h-1.536l2.235-6.36zm-6.698 0c1.795 0 2.528.695 2.528 2.18 0 1.34-.724 2.11-2.528 2.11h-.863v2.07h-1.458v-6.36zm-3.609 0v1.263h-2.942v1.264h2.39v1.136h-2.39v1.45h2.942v1.247h-4.4v-6.36zm-27.216-2.63a.444.444 0 0 1 .598-.096l.016.011 2.778 2.052 2.779 2.05c.188.14.23.4.099.588l-.011.015-2.446 3.2a.4.4 0 0 1-.139.116.45.45 0 0 1-.469-.015l-.017-.012-5.548-4.095a.43.43 0 0 1-.165-.433l.004-.018q.016-.077.061-.144l.014-.02zm4.955 5.85-5.777-4.264-.313.407-.623.8-.454.593a.13.13 0 0 0-.023.092q.008.048.044.082l.011.01 5.557 4.101q.048.033.104.026a.14.14 0 0 0 .076-.037l.008-.01.464-.606.577-.74.239-.31zm31.705-2.143h-.026l-.18.67-.648 2.18h1.648l-.621-2.18zm-25.09-.7a.07.07 0 0 1 .092-.02l.008.006.157.115a.07.07 0 0 1 .019.09l-.005.008-1.993 2.605a.07.07 0 0 1-.091.019l-.008-.006-.157-.115a.07.07 0 0 1-.02-.09l.006-.008zm19.255.819h-.863v1.95h.938l.025-.001.047-.002.047-.002.045-.003.043-.004.043-.005q.01 0 .02-.003l.04-.006c.345-.055.541-.214.612-.579l.007-.043q.024-.143.023-.327v-.027l-.001-.054-.002-.051-.005-.074-.004-.046c-.049-.444-.244-.64-.653-.7l-.043-.006-.045-.005-.046-.004-.048-.004h-.025l-.05-.003-.052-.001zm-30.391-3.666a.145.145 0 0 0-.192.017l-.008.01-.397.537 5.777 4.264.397-.537a.14.14 0 0 0-.02-.188l-.01-.008-1.655-1.221-1.119-.826-1.118-.825z"/></g></svg>