<svg xmlns="http://www.w3.org/2000/svg" aria-hidden="true" viewBox="0 0 23 18" fill="#171717"><path fill="currentColor" d="M11.5 1.532a7.15 7.15 0 0 0-2.715 5.62A7.15 7.15 0 0 0 11.5 12.77a7.15 7.15 0 0 0 2.715-5.62A7.15 7.15 0 0 0 11.5 1.533zM15.893 0c-1.455 0-2.808.44-3.935 1.195q.088.07.172.143a7.72 7.72 0 0 1 2.634 5.813c0 2.228-.96 4.347-2.634 5.813q-.084.072-.172.143a7.04 7.04 0 0 0 3.935 1.195C19.818 14.302 23 11.1 23 7.151 23 3.201 19.818 0 15.893 0M10.87 12.964q.084.072.172.143a7.04 7.04 0 0 1-3.935 1.195C3.182 14.302 0 11.1 0 7.151 0 3.201 3.182 0 7.107 0c1.455 0 2.808.44 3.935 1.195q-.088.07-.172.143a7.72 7.72 0 0 0-2.634 5.813c0 2.228.96 4.347 2.634 5.813m11.907-1.382v-.277h-.072l-.082.19-.083-.19h-.072v.277h.05v-.21l.078.181h.053l.078-.18v.21zm-.456 0v-.23h.092v-.047h-.234v.047h.092v.23zm.28 6.143a.1.1 0 0 1 .058.017q.02.016.02.046 0 .024-.016.04a.1.1 0 0 1-.047.02l.065.075h-.05l-.06-.074h-.02v.074h-.042v-.198zm-.025.233a.14.14 0 0 0 .102-.043.14.14 0 0 0 .042-.104.146.146 0 0 0-.144-.146.15.15 0 0 0-.136.09.2.2 0 0 0-.011.056.147.147 0 0 0 .147.147m0-.335a.2.2 0 0 1 .134.055.18.18 0 0 1 .041.206.19.19 0 0 1-.175.116.19.19 0 0 1-.178-.116.18.18 0 0 1 .04-.206.2.2 0 0 1 .137-.055zM4.97 16.948c0-.333.217-.607.572-.607.34 0 .569.262.569.607 0 .346-.23.608-.569.608-.355 0-.572-.274-.572-.608m1.528 0V16h-.41v.23a.71.71 0 0 0-.597-.278c-.529 0-.944.418-.944.997 0 .58.415.998.944.998a.71.71 0 0 0 .596-.279v.23h.41v-.949zm13.865 0c0-.333.217-.607.573-.607.34 0 .568.262.568.607 0 .346-.229.608-.568.608-.356 0-.573-.274-.573-.608m1.528 0v-1.712h-.41v.994a.71.71 0 0 0-.597-.279c-.529 0-.943.418-.943.997 0 .58.414.998.943.998a.71.71 0 0 0 .596-.279v.23h.411zm-10.3-.627c.264 0 .434.167.477.46h-.979c.044-.274.21-.46.502-.46m.008-.37c-.553 0-.94.406-.94.997 0 .604.403.998.967.998.284 0 .545-.072.774-.267l-.201-.306a.9.9 0 0 1-.55.2c-.264 0-.505-.124-.564-.466h1.402a2 2 0 0 0 .008-.159c-.004-.591-.367-.997-.896-.997m4.954.997c0-.333.217-.607.573-.607.34 0 .568.262.568.607 0 .346-.229.608-.568.608-.356 0-.573-.274-.573-.608m1.528 0V16h-.41v.23a.71.71 0 0 0-.597-.278c-.529 0-.943.418-.943.997 0 .58.414.998.943.998a.71.71 0 0 0 .597-.279v.23h.41v-.949zm-3.845 0c0 .576.399.998 1.007.998a1 1 0 0 0 .679-.227l-.198-.334a.83.83 0 0 1-.493.171c-.328-.004-.569-.242-.569-.608 0-.365.241-.603.569-.607.177 0 .34.06.493.17l.198-.333a1 1 0 0 0-.68-.227c-.607 0-1.006.422-1.006.997m5.29-.997a.56.56 0 0 0-.497.279V16h-.407v1.898h.41v-1.065c0-.313.135-.488.403-.488a.7.7 0 0 1 .257.047l.126-.389a.9.9 0 0 0-.292-.052m-11 .2c-.197-.132-.469-.2-.769-.2-.478 0-.786.23-.786.608 0 .31.23.5.652.56l.193.028c.225.032.332.091.332.199 0 .147-.15.23-.43.23a1 1 0 0 1-.628-.199l-.194.322c.225.167.51.247.818.247.544 0 .86-.259.86-.62 0-.334-.248-.509-.659-.568l-.193-.028c-.178-.024-.32-.06-.32-.187 0-.139.134-.222.36-.222.24 0 .473.091.587.163l.178-.334zm5.295-.2a.56.56 0 0 0-.497.279V16h-.407v1.898h.41v-1.065c0-.313.135-.488.404-.488.082 0 .17.012.256.047l.126-.389a.9.9 0 0 0-.292-.052M10.32 16h-.67v-.576h-.415V16H8.85v.378h.383v.865c0 .441.17.704.655.704a.96.96 0 0 0 .513-.147l-.118-.354a.75.75 0 0 1-.363.107c-.206 0-.273-.127-.273-.318v-.857h.671V16zm-6.135 1.899v-1.192c0-.449-.284-.75-.742-.755-.24-.004-.49.072-.663.338a.69.69 0 0 0-.624-.338.62.62 0 0 0-.553.283V16h-.41v1.899h.414v-1.053c0-.33.182-.504.462-.504.272 0 .41.179.41.5v1.057h.415v-1.053c0-.33.19-.504.462-.504.28 0 .414.179.414.5v1.057z"/></svg>