<svg xmlns="http://www.w3.org/2000/svg" aria-hidden="true" viewBox="0 0 56 14" fill="#171717"><defs><filter id="i297738949__a" color-interpolation-filters="auto"><feColorMatrix in="SourceGraphic" values="0 0 0 0 0.000000 0 0 0 0 0.000000 0 0 0 0 0.000000 0 0 0 1.000000 0"/></filter></defs><g fill="none" fill-rule="evenodd" filter="url(#i297738949__a)" transform="translate(-324 -811)"><path fill="currentColor" fill-rule="nonzero" d="M334.809 814.892c.226.116.43.273.6.462.538.612.643 1.483.44 2.525-.47 2.409-2.037 3.296-4.058 3.354l-.218.003h-.328a.53.53 0 0 0-.498.353l-.024.093-.026.143-.413 2.62-.022.11a.53.53 0 0 1-.426.436l-.095.009h-2.194a.316.316 0 0 1-.316-.297l.003-.069.18-1.137.633-4.013a.6.6 0 0 1 .497-.5l.097-.008h1.237c2.43 0 4.332-.985 4.888-3.837a7 7 0 0 0 .043-.247m22.292 1.98a.43.43 0 0 1 .393.256l.017.048.865 2.885 2.04-3.002a.43.43 0 0 1 .302-.184l.052-.004h1.48a.256.256 0 0 1 .233.361l-.023.041-4.92 7.095a.43.43 0 0 1-.3.18l-.051.003h-1.478a.256.256 0 0 1-.233-.363l.024-.04 1.532-2.161-1.63-4.777a.256.256 0 0 1 .203-.336l.04-.003zM330.571 811c1.453 0 2.588.306 3.217 1.022.57.65.737 1.367.572 2.42a7 7 0 0 1-.044.248c-.538 2.76-2.337 3.771-4.654 3.834l-.234.003h-1.237a.6.6 0 0 0-.593.508l-.634 4.013h-2.603a.36.36 0 0 1-.361-.34l.004-.079 1.756-11.12c.04-.26.245-.46.499-.501l.097-.008zm20.206 5.733c.672 0 1.346.139 1.686.546l.053.07.103.15.065-.412a.26.26 0 0 1 .212-.212l.041-.004h1.472a.255.255 0 0 1 .256.252l-.003.044-.796 5.033a.43.43 0 0 1-.37.358l-.052.003h-1.326a.256.256 0 0 1-.256-.252l.003-.045.066-.408-.039.04-.078.076-.075.066c-.297.247-.928.66-1.846.66-.763 0-1.405-.22-1.854-.748-.489-.575-.689-1.398-.548-2.26.27-1.726 1.66-2.957 3.286-2.957m21.928 0c.672 0 1.345.139 1.685.546l.053.07.104.15.065-.412a.255.255 0 0 1 .211-.212l.042-.004h1.47a.257.257 0 0 1 .258.251l-.003.045-.796 5.033a.43.43 0 0 1-.37.358l-.052.003h-1.326a.256.256 0 0 1-.256-.252l.003-.045.066-.408-.039.04-.078.076-.076.066c-.296.247-.927.66-1.845.66-.764 0-1.405-.22-1.854-.748-.49-.575-.688-1.398-.548-2.26.27-1.726 1.66-2.957 3.286-2.957m-27.485-2.702c1.03 0 1.804.27 2.241.784.398.467.53 1.134.392 1.982-.298 1.897-1.422 2.875-3.365 2.918l-.134.001h-.973a.43.43 0 0 0-.41.31l-.012.05-.335 2.125a.43.43 0 0 1-.37.357l-.052.003h-1.468a.256.256 0 0 1-.256-.25l.003-.045 1.243-7.875a.43.43 0 0 1 .37-.357l.052-.003zm21.927 0c1.03 0 1.804.27 2.24.784.398.467.53 1.134.392 1.982-.298 1.897-1.422 2.875-3.365 2.918l-.134.001h-.973a.43.43 0 0 0-.41.31l-.011.05-.353 2.233a.3.3 0 0 1-.252.249l-.043.003h-1.578a.256.256 0 0 1-.255-.251l.003-.044 1.243-7.875a.43.43 0 0 1 .37-.357l.052-.003zm12.597 0a.256.256 0 0 1 .256.25l-.003.045-1.244 7.875a.426.426 0 0 1-.37.357l-.052.003h-1.269a.256.256 0 0 1-.256-.251l.004-.044 1.261-8.02a.26.26 0 0 1 .212-.212l.04-.004zm-28.617 4.262c-.839 0-1.517.582-1.65 1.415-.07.409.014.775.231 1.033.22.26.561.397.989.397.85 0 1.518-.564 1.66-1.404.065-.407-.024-.776-.249-1.04-.223-.263-.563-.401-.981-.401m21.926 0c-.838 0-1.516.582-1.65 1.415-.068.409.014.775.231 1.033.22.26.562.397.989.397.851 0 1.52-.564 1.66-1.404.066-.407-.023-.776-.248-1.04-.224-.263-.564-.401-.982-.401m-28.977-2.558h-.212a.26.26 0 0 0-.244.176l-.01.04-.325 2.058.687-.001.147-.003q.037 0 .073-.003l.145-.009c.596-.049 1.11-.251 1.238-1.086.062-.387.012-.667-.15-.856-.219-.257-.606-.305-1.041-.314zm21.928 0h-.213a.255.255 0 0 0-.243.176l-.01.04-.325 2.058.686-.001.147-.003q.037 0 .073-.003l.145-.009c.596-.049 1.11-.251 1.238-1.086.061-.387.012-.667-.149-.856-.22-.257-.607-.305-1.042-.314z"/></g></svg>