<svg xmlns="http://www.w3.org/2000/svg" aria-hidden="true" viewBox="0 0 64 11" fill="#171717"><defs><filter id="i-22730526__a" color-interpolation-filters="auto"><feColorMatrix in="SourceGraphic" values="0 0 0 0 0.000000 0 0 0 0 0.000000 0 0 0 0 0.000000 0 0 0 1.000000 0"/></filter></defs><g fill="none" fill-rule="evenodd" filter="url(#i-22730526__a)" transform="translate(-492 -813)"><path fill="currentColor" d="M535.231 815.193c.491 0 .947.092 1.36.278q.622.276 1.06.754.439.479.684 1.14.244.661.242 1.43.002.77-.242 1.432a3.5 3.5 0 0 1-.683 1.139q-.44.479-1.061.754a3.3 3.3 0 0 1-1.36.278 2.3 2.3 0 0 1-.662-.092 3 3 0 0 1-.605-.25 2.4 2.4 0 0 1-.499-.363 1.7 1.7 0 0 1-.341-.448V824h-2.179v-8.636h2.179v.982q.128-.226.341-.441.213-.213.499-.37c.192-.107.391-.185.605-.25a2.3 2.3 0 0 1 .662-.092m14.724.249 1.345 3.624 1.688-3.624h2.549L551.343 824h-2.549l1.225-2.47-2.755-6.088zm-49.532 1.488.1.242a4.617 4.617 0 0 1-4.272 6.244 4.7 4.7 0 0 1-1.83-.363zm42.056-1.666c.22 0 .434.029.655.093.22.064.42.142.605.249q.278.159.492.37c.142.142.256.292.341.441v-.982h2.179v6.863h-2.179v-.968q-.129.245-.341.449a2.3 2.3 0 0 1-.492.356 3 3 0 0 1-.605.242 2.3 2.3 0 0 1-.655.092c-.491 0-.947-.092-1.36-.277a3.2 3.2 0 0 1-1.06-.755 3.5 3.5 0 0 1-.684-1.14 4.1 4.1 0 0 1-.242-1.43q-.002-.77.242-1.431.245-.662.683-1.14.44-.479 1.061-.754a3.3 3.3 0 0 1 1.36-.278m-15.92-.085q.81 0 1.46.256.651.256 1.11.683a2.98 2.98 0 0 1 .962 2.193c0 .143 0 .292-.007.456a4 4 0 0 1-.065.555h-4.94c.007.207.042.406.092.591s.135.35.256.484c.121.136.27.25.463.328q.286.119.712.12c.377 0 .67-.077.861-.227a1.2 1.2 0 0 0 .406-.555h2.136c-.05.32-.156.626-.334.911a2.7 2.7 0 0 1-.698.748 3.5 3.5 0 0 1-1.025.505c-.392.121-.84.185-1.332.185q-.895.002-1.587-.263a3.2 3.2 0 0 1-1.161-.748 3.2 3.2 0 0 1-.712-1.146 4.2 4.2 0 0 1-.242-1.46q0-.757.235-1.41a3.3 3.3 0 0 1 .698-1.146c.306-.327.69-.583 1.139-.776.448-.192.975-.284 1.573-.284m-14.033.007c.22 0 .435.028.655.092s.42.143.605.25q.279.157.492.37c.142.142.256.292.341.441v-.975h2.18v6.856h-2.18v-.968a1.7 1.7 0 0 1-.341.448 2.3 2.3 0 0 1-.492.356q-.275.148-.605.242a2.3 2.3 0 0 1-.655.093c-.491 0-.947-.093-1.36-.278a3.2 3.2 0 0 1-1.06-.754 3.5 3.5 0 0 1-.684-1.14 4.1 4.1 0 0 1-.242-1.43c0-.513.078-.99.242-1.432q.246-.66.684-1.139t1.06-.755a3.3 3.3 0 0 1 1.36-.277M520.92 813v2.364h2.1l-.832 1.623h-1.268v2.442c0 .256.022.463.072.612.05.15.114.27.199.35a.7.7 0 0 0 .299.163q.17.043.37.043h.413q.213-.002.37-.036v1.666a7 7 0 0 1-.605.078 10 10 0 0 1-.847.036 7 7 0 0 1-.812-.057 1.9 1.9 0 0 1-.79-.292q-.363-.234-.598-.726-.235-.491-.235-1.346v-2.933h-1.082v-1.623h1.082v-1.196zm-12.352 2.25c.242 0 .448.043.62.107l-.976 1.893a1.88 1.88 0 0 0-1.196.513c-.364.356-.542.947-.542 1.78v2.677h-2.178v-6.856h2.178v1.11c.164-.32.428-.605.805-.854.377-.25.805-.37 1.289-.37m34.374 1.865c-.25 0-.47.05-.67.143q-.299.138-.512.384a1.84 1.84 0 0 0-.456 1.225q.002.354.121.676.12.321.335.555a1.56 1.56 0 0 0 1.182.52 1.56 1.56 0 0 0 1.182-.52q.215-.234.334-.555t.121-.676a1.84 1.84 0 0 0-.456-1.225 1.5 1.5 0 0 0-.512-.384 1.6 1.6 0 0 0-.67-.143zm-29.96-.071a1.52 1.52 0 0 0-1.182.527 1.84 1.84 0 0 0-.456 1.224c0 .235.043.463.121.677q.12.32.335.555.213.237.513.378c.199.092.427.142.669.142a1.56 1.56 0 0 0 1.182-.52q.215-.235.334-.555a2 2 0 0 0 .121-.677 1.84 1.84 0 0 0-.456-1.225 1.5 1.5 0 0 0-.512-.384c-.2-.092-.42-.142-.67-.142zm21.793 0c-.249 0-.47.05-.676.142a1.6 1.6 0 0 0-.52.378 1.7 1.7 0 0 0-.334.555 1.96 1.96 0 0 0 0 1.353c.078.213.192.399.334.555q.213.237.52.378a1.62 1.62 0 0 0 1.331 0q.3-.141.513-.378.216-.235.335-.555a1.96 1.96 0 0 0 0-1.353 1.7 1.7 0 0 0-.335-.555 1.6 1.6 0 0 0-.513-.378 1.5 1.5 0 0 0-.655-.142m-38.61-2.862a4.6 4.6 0 0 1 2.4.655l-4.265 4.35-2.3-2.257a4.6 4.6 0 0 1 4.165-2.748m30.38 2.449q-.639-.002-1.054.37-.414.374-.413 1.068h2.877c0-.448-.128-.797-.392-1.053-.263-.257-.605-.385-1.018-.385"/></g></svg>