<svg xmlns="http://www.w3.org/2000/svg" fill="#171717" aria-hidden="true" viewBox="0 0 24 24"><path fill="#5328E1" d="M0 12C0 6.343 0 3.515 1.757 1.757 3.515 0 6.343 0 12 0s8.485 0 10.243 1.757C24 3.515 24 6.343 24 12s0 8.485-1.757 10.243C20.485 24 17.657 24 12 24s-8.485 0-10.243-1.757C0 20.485 0 17.657 0 12"/><path fill="#fff" fill-rule="evenodd" d="M11.915 6a5.915 5.915 0 1 1 0 11.83 5.915 5.915 0 0 1 0-11.83m0 1.587c-2.301 0-4.162 1.94-4.162 4.327s1.86 4.327 4.162 4.327c2.303 0 4.162-1.94 4.162-4.327a4.44 4.44 0 0 0-.613-2.262l-.057-.095-1.822 1.859-1.182-1.206 1.774-1.807.072-.073-.085-.057a4.04 4.04 0 0 0-1.95-.675z" clip-rule="evenodd"/></svg>