<svg version="1.1" id="Layer_1" xmlns="http://www.w3.org/2000/svg" xmlns:xlink="http://www.w3.org/1999/xlink" x="0px" y="0px"
	 viewBox="0 0 358.7 73.8" style="enable-background:new 0 0 358.7 73.8;" xml:space="preserve">
<style type="text/css">
	.st0{fill:#FFFFFF;}
</style>
<g>
	<g>
		<g>
			<path class="st0" d="M272.9,1.8v23.6h1.9L288,4.2h17.6v58.2c0.1,3.9-3.1,7.1-7,7.2l0,0h-6.5V72h47.5v-2.4h-6.5l0,0
				c-4-0.1-7.1-3.3-7.1-7.2l0,0V4.3h17.6l13.2,21.2h1.9V1.8H272.9z M246.5,69.6h-23l0,0c-3.1-0.2-5.7-2.5-6.1-5.4V9.5
				c0-2.9,3.1-5.1,6.3-5.2h0.2l0,0h7.9V1.9h-49.7v2.4h9.5h0.1c2.7,0,5.4,2.6,5.4,5.2v0.9v0.1v52.7c0,3.5-2.9,6.3-6.4,6.3l0,0h-8.5
				v2.4h83.1V44.2h-2.5L246.5,69.6z M117.4,4.3h5.3l0,0c3.8,0,7,2.6,7.2,6.2l0,0l0,0v52.8l0,0c0,3.4-2.8,6.1-6.3,6.2l0,0h-0.2l0,0
				l0,0h-6v2.4h45.3v-2.4h-6l0,0h-0.2l0,0c-3.5-0.1-6.3-2.9-6.3-6.3l0,0V10.5l0,0l0,0c0.2-3.7,3.5-6.2,7.2-6.2h5.2V1.9h-45.3
				L117.4,4.3L117.4,4.3z M58.2,40.5h6.3h0.4c3,0.2,5.4,2.6,5.5,5.6l0,0v17.1c-1.6,5.9-14.4,8.2-21.3,8.2c-25.9,0-28-14.9-28-31.7
				c0-12.2,1.1-37.3,28.4-37.3c22.1,0,32,16.5,38.2,26.8h1.9V0h-1.7c-1.6,2.1-4.1,5.5-9.6,5.5C71.9,5.5,61.1,0,48.7,0
				C24.9,0,0,13.1,0,38.8c0,16.6,15.5,35,46.2,35c17.5,0,31.2-6.9,39.6-6.9h4.1V47.3v-1c0.4-3.2,3.3-5.7,6.8-5.7H97h3.1v-2.4H58.2
				V40.5z"/>
		</g>
	</g>
</g>
</svg>
