<svg xmlns="http://www.w3.org/2000/svg" fill="#171717" aria-hidden="true" viewBox="0 0 24 24"><path d="M21.972 11.917c0-4.977-3.623-9.103-8.377-9.902a1.015 1.015 0 0 1-.834-1.168 1.015 1.015 0 0 1 1.17-.832C19.64.975 24 5.93 24 11.917 24 18.59 18.59 24 11.917 24 5.93 24 .976 19.641.016 13.93a1.015 1.015 0 0 1 .832-1.169 1.015 1.015 0 0 1 1.167.834c.8 4.754 4.926 8.377 9.903 8.377 5.553 0 10.054-4.501 10.054-10.054M.602 7.71a1.015 1.015 0 1 1 1.9.707 10 10 0 0 0-.486 1.825 1.015 1.015 0 0 1-2.002-.337q.194-1.137.588-2.194m3.616-5.103A1.015 1.015 0 1 1 5.509 4.17q-.732.606-1.338 1.339a1.015 1.015 0 1 1-1.564-1.292 12 12 0 0 1 1.61-1.61M9.905.014a1.016 1.016 0 0 1 .336 2.001 10 10 0 0 0-1.823.49 1.016 1.016 0 0 1-.71-1.902 12 12 0 0 1 2.197-.59"/><path d="M11.466 5.852a1.016 1.016 0 0 1 2.03 0v6.629c0 .56-.455 1.014-1.014 1.014H7.08a1.014 1.014 0 1 1 0-2.028h4.385z"/></svg>