<svg xmlns="http://www.w3.org/2000/svg" fill="#171717" aria-hidden="true" viewBox="0 0 24 24"><path d="M15.288 1.223a5.89 5.89 0 0 1 5.106 2.945l2.816 4.886a5.9 5.9 0 0 1 .186 5.545l-.186.347-2.816 4.885a5.89 5.89 0 0 1-5.106 2.946H8.711a5.9 5.9 0 0 1-4.898-2.611l-.207-.335-2.817-4.885a5.89 5.89 0 0 1 0-5.892l2.819-4.886A5.89 5.89 0 0 1 8.71 1.223zM8.711 3.237a3.88 3.88 0 0 0-3.36 1.94L2.535 10.06a3.88 3.88 0 0 0 0 3.878l2.816 4.886.136.22a3.88 3.88 0 0 0 3.224 1.718h6.577a3.88 3.88 0 0 0 3.36-1.938l2.817-4.886a3.88 3.88 0 0 0 .002-3.879L18.65 5.176a3.88 3.88 0 0 0-3.36-1.938z"/><path d="M14.342 8.235a1.006 1.006 0 1 1 1.423 1.424L9.66 15.765a1.007 1.007 0 0 1-1.424-1.423z"/><path d="M8.235 8.235a1.006 1.006 0 0 1 1.424 0l6.106 6.107a1.007 1.007 0 0 1-1.423 1.423L8.235 9.66a1.006 1.006 0 0 1 0-1.424"/></svg>